<?xml version="1.0" encoding="utf-8"?>
<svg viewBox="0 0 39.849 39.84" width="39.849" height="39.84" style="enable-background:new 0 0 169 40;" xmlns="http://www.w3.org/2000/svg">
  <defs>
    <style type="text/css">
	.st0{fill:#ffffff;stroke:#000000;stroke-miterlimit:10;}
</style>
  </defs>
  <g transform="matrix(1.657299, 0, 0, 1.657299, -14.180501, -12.694432)" style="">
    <g>
      <circle class="st0" cx="20.6" cy="19.8" r="11.2" />
      <path d="M14.9,12.3h1.2l3.2,9.1c0.4,1.1,0.8,2.3,1.2,3.4h0.1c0.4-1.1,0.8-2.3,1.2-3.4l3.2-9.1h1.2v14.9h-0.7V16.8 c0-1.2,0-2.7,0.1-3.9h-0.1l-1.2,3.3L21,25.5h-0.8l-3.4-9.3l-1.2-3.3h-0.1c0,1.2,0.1,2.7,0.1,3.9v10.4h-0.7V12.3z"/>
    </g>
    <path d="M20.3,12.3h0.6l5.3,14.9h-0.8l-3.1-9c-0.6-1.8-1.2-3.4-1.7-5.2h-0.1c-0.5,1.9-1.1,3.4-1.7,5.2l-3.2,9h-0.7L20.3,12.3z M17.9,19.1h5.2v0.6h-5.2V19.1z"/>
  </g>
</svg>